<?xml version="1.0" encoding="UTF-8" standalone="no"?>
<svg
   xmlns:dc="http://purl.org/dc/elements/1.1/"
   xmlns:cc="http://creativecommons.org/ns#"
   xmlns:rdf="http://www.w3.org/1999/02/22-rdf-syntax-ns#"
   xmlns:svg="http://www.w3.org/2000/svg"
   xmlns="http://www.w3.org/2000/svg"
   xmlns:sodipodi="http://sodipodi.sourceforge.net/DTD/sodipodi-0.dtd"
   xmlns:inkscape="http://www.inkscape.org/namespaces/inkscape"
   width="100"
   height="100"
   viewBox="0 0 100 100"
   version="1.1"
   id="svg18"
   sodipodi:docname="noun_labyrinth_2174337.svg"
   inkscape:version="0.92.1 r15371"
   inkscape:export-filename="/home/nagarjun/Pictures/stem-games-site-images/noun_labyrinth_2174337.svg.png"
   inkscape:export-xdpi="100"
   inkscape:export-ydpi="100">
  <metadata
     id="metadata24">
    <rdf:RDF>
      <cc:Work
         rdf:about="">
        <dc:format>image/svg+xml</dc:format>
        <dc:type
           rdf:resource="http://purl.org/dc/dcmitype/StillImage" />
      </cc:Work>
    </rdf:RDF>
  </metadata>
  <defs
     id="defs22" />
  <sodipodi:namedview
     pagecolor="#ffffff"
     bordercolor="#666666"
     borderopacity="1"
     objecttolerance="10"
     gridtolerance="10"
     guidetolerance="10"
     inkscape:pageopacity="0"
     inkscape:pageshadow="2"
     inkscape:window-width="3200"
     inkscape:window-height="1658"
     id="namedview20"
     showgrid="false"
     inkscape:zoom="9.8773979"
     inkscape:cx="74.567809"
     inkscape:cy="49.091451"
     inkscape:window-x="0"
     inkscape:window-y="68"
     inkscape:window-maximized="1"
     inkscape:current-layer="svg18" />
  <g
     id="g4532"
     style="fill:#ffcc00"
     transform="translate(-4.8876958e-7,-0.30372376)">
    <circle
       r="48%"
       cx="50.071587"
       cy="50.328548"
       id="circle2"
       style="fill:#ffcc00;stroke:none" />
  </g>
  <g
     id="g14"
     style="fill:#000000"
     transform="matrix(0.97646696,0,0,0.97646696,1.4088032,1.3027302)">
    <svg
       style="fill:#000000"
       height="100%"
       width="100%"
       id="svg12"
       version="1.1"
       y="0px"
       x="0px"
       viewBox="0 0 96 96">
      <title
         id="title4">Artboard 26</title>
      <g
         id="g10"
         style="fill:#000000">
        <circle
           id="circle6"
           r="8"
           cy="48"
           cx="48"
           style="fill:#000000" />
        <path
           inkscape:connector-curvature="0"
           id="path8"
           d="M 48,8 A 39.8856,39.8856 0 0 0 26.7266,14.1641 3.9991482,3.9991482 0 0 0 30.9922,20.93 31.9752,31.9752 0 0 1 44,16.2837 v 8.0776 a 23.8634,23.8634 0 0 0 -18.3086,32.3731 3.9991,3.9991 0 0 0 7.4453,-2.9219 16.1393,16.1393 0 1 1 9.0508,9.0508 3.9991,3.9991 0 0 0 -2.9219,7.4453 A 24.5314,24.5314 0 0 0 44,71.6133 v 8.1089 A 31.9287,31.9287 0 0 1 20.93,30.9922 3.9990213,3.9990213 0 0 0 14.1644,26.7266 39.9531,39.9531 0 0 0 69.2734,81.8359 3.9991482,3.9991482 0 0 0 65.0078,75.07 31.9752,31.9752 0 0 1 52,79.7163 v -8.0776 a 23.97,23.97 0 0 0 0,-47.2774 v -8.0835 a 31.9287,31.9287 0 0 1 23.07,48.73 3.9990213,3.9990213 0 1 0 6.7656,4.2656 A 39.9531,39.9531 0 0 0 48,8 Z"
           style="fill:#000000" />
      </g>
    </svg>
  </g>
</svg>
